<svg width="68" height="92" viewBox="0 0 68 92" fill="none" xmlns="http://www.w3.org/2000/svg">
<rect x="36.3944" y="55.092" width="13.7077" height="16.9237" fill="#FDEA6B"/>
<path fill-rule="evenodd" clip-rule="evenodd" d="M32.3962 38.5388C33.8739 37.4107 37.5835 36.9034 39.1606 37.9896C40.7182 39.0803 40.888 40.8442 41.6139 42.4668C42.2987 42.1431 43.4297 42.6068 43.6282 43.2439C43.8745 43.5443 43.8856 44.3886 44.0554 44.7925C51.4445 45.9717 52.5663 51.7473 53.4557 58.3042C54.6323 64.9578 57.3033 71.5968 56.1437 78.4435C56.2948 78.6627 56.4139 78.8757 56.5241 79.1287C56.788 79.5789 56.4481 80.2162 55.9157 80.1916C55.2267 80.1309 54.5445 80.0481 53.8522 80.0222C51.9331 79.9554 50.0123 79.9633 48.0925 79.9878L47.8307 79.9912C38.1555 80.112 28.4808 80.3499 18.8052 80.413C18.4542 80.4135 18.2823 80.0979 18.3292 79.7866C18.4236 79.1597 18.5112 78.5326 18.6026 77.9055C16.3141 78.5115 13.8811 78.664 11.5991 77.9692C11.4394 77.8062 11.971 77.8945 12.0554 77.8698C9.95516 76.431 10.5824 73.3999 10.7684 71.2167C11.9252 63.736 12.3331 55.4592 16.8027 49.0757C18.7363 46.4707 21.5712 44.4082 24.8287 43.9441L24.919 43.9317C25.8715 43.8044 26.9331 43.7633 27.7658 43.2439C28.7025 42.4942 29.1016 41.1091 30.087 41.0961C30.4123 41.0918 30.855 41.5045 31.3313 41.7847C31.3668 41.1683 31.6982 40.6482 31.7713 40.1703L31.7772 40.1294C31.8536 39.5722 31.749 39.0709 32.3962 38.5388ZM48.2762 58.5018C46.1996 57.0555 40.8355 57.7822 40.7127 57.8632C40.4423 58.0415 40.3258 58.0573 40.1796 58.2888C40.0352 58.308 39.891 58.328 39.7468 58.3485C39.4576 58.4432 39.6719 58.7998 40.006 58.6726C39.8051 59.5412 40.3963 60.159 40.6317 61.0177C40.7081 61.2965 40.6344 61.798 40.6317 62.0829C40.6545 62.4462 41.0551 62.8752 40.9883 63.2397C40.751 64.5353 39.4629 65.7992 40.006 67.0557C40.3657 67.7653 41.4477 68.1272 42.1671 68.3684C43.6575 68.9419 46.2545 68.3468 47.1205 67.0557C47.5824 66.367 48.1175 64.6297 48.3929 64.0909L48.454 63.2361C48.6045 61.1112 48.7384 58.8238 48.2762 58.5018Z" fill="#D08B5B"/>
<path fill-rule="evenodd" clip-rule="evenodd" d="M30.0101 41.1L30.6044 41.4656L34.0558 43.1761C34.7249 43.3639 35.0594 43.589 35.0594 43.8514V46.5231C35.0594 46.8806 35.6873 47.691 36.9431 48.954L38.1033 47.7945L38.0773 47.6427C37.9669 46.9885 37.9117 46.5509 37.9117 46.3299C37.9117 46.0922 39.0468 45.1899 41.3168 43.6229L42.31 42.6855L42.2041 42.3627C42.8164 42.3917 43.4805 42.7698 43.6282 43.2438C43.8745 43.5443 43.8856 44.3886 44.0554 44.7925C51.4445 45.9717 52.5663 51.7473 53.4557 58.3042C54.6323 64.9578 57.3033 71.5968 56.1437 78.4435C56.2948 78.6627 56.4139 78.8757 56.5241 79.1287C56.788 79.5789 56.4481 80.2162 55.9157 80.1915C55.2267 80.1309 54.5445 80.0481 53.8522 80.0222C51.9331 79.9554 50.0123 79.9633 48.0925 79.9878L47.8307 79.9912C38.1555 80.112 28.4808 80.3499 18.8052 80.413C18.4542 80.4135 18.2823 80.0979 18.3292 79.7866C18.4236 79.1597 18.5112 78.5326 18.6026 77.9055C16.3141 78.5115 13.8811 78.664 11.5991 77.9692C11.4394 77.8061 11.971 77.8945 12.0554 77.8698C9.95516 76.4309 10.5824 73.3999 10.7684 71.2167C11.9252 63.736 12.3331 55.4591 16.8027 49.0757C18.7363 46.4707 21.5712 44.4082 24.8287 43.9441L24.919 43.9317L25.0101 43.9198C25.9387 43.8013 26.9595 43.7468 27.7658 43.2438C28.6777 42.514 29.0801 41.1818 30.0101 41.1ZM38.2801 56.7817C37.9416 56.7817 37.2483 57.3087 36.2003 58.3628L36.1079 58.4056C34.841 58.9956 34.0017 59.5074 33.5901 59.941L33.5754 59.9566C33.1595 60.4039 32.3359 61.5934 31.1047 63.525L29.3217 64.5821H28.647L28.1667 68.0751L29.3217 70.5692L31.9377 69.6857L36.2003 68.5593L38.6462 66.0714L40.026 65.607C39.8586 66.0919 39.7979 66.5743 40.006 67.0557C40.3657 67.7653 41.4477 68.1272 42.1671 68.3684C43.6575 68.9419 46.2545 68.3468 47.1205 67.0557C47.5824 66.367 48.1175 64.6297 48.3929 64.0909L48.4719 62.9804C48.6143 60.9313 48.7199 58.8109 48.2762 58.5018C46.1996 57.0555 40.8355 57.7822 40.7127 57.8632C40.4423 58.0415 40.3258 58.0573 40.1796 58.2888L40.1039 58.299L40.5296 57.7202L40.3789 57.6395C39.3033 57.0676 38.6037 56.7817 38.2801 56.7817ZM40.006 58.6725C39.8136 59.5042 40.3473 60.1058 40.5997 60.9091L39.9548 59.6714L39.9548 58.6886C39.9715 58.6845 39.9886 58.6792 40.006 58.6725Z" fill="#9DDADB"/>
<path fill-rule="evenodd" clip-rule="evenodd" d="M29.7252 40.9708C29.8685 40.8435 30.0807 41.0035 29.9896 41.1754C29.7849 41.5618 29.5749 41.928 29.3001 42.2695C29.1335 42.4767 28.9551 42.6725 28.7743 42.8663C29.2383 43.2688 29.6363 43.7685 30.0122 44.2368C30.4928 44.8358 30.9472 45.4602 31.4867 46.0083C32.0188 46.5488 32.6071 46.9267 33.3185 47.1787L33.4621 47.2287C34.1767 47.4802 34.9405 47.8199 35.3433 48.4982C35.4228 48.632 35.2628 48.7973 35.1284 48.7138C34.4284 48.2793 33.606 48.1919 32.8441 47.9048C32.1082 47.6275 31.4666 47.2007 30.8997 46.656C30.3338 46.1121 29.8587 45.4934 29.363 44.8877C28.8729 44.2889 28.3452 43.7774 27.7654 43.2707C26.8708 43.8741 25.8496 44.1366 24.8112 44.3945L24.6979 44.4226C23.6583 44.6807 22.6242 44.9804 21.6489 45.4298C20.7889 45.8259 19.9431 46.299 19.2426 46.9437C18.4991 47.6278 17.9204 48.5016 17.3907 49.3561C16.2058 51.2679 15.3728 53.3624 14.6395 55.4823C13.8767 57.6873 13.2388 59.9364 12.7237 62.2123C12.4618 63.37 12.2491 64.5358 12.0742 65.7099C11.99 66.2753 11.9153 66.8419 11.8496 67.4098C11.7795 68.0163 11.7634 68.6402 11.5779 69.2233C11.4983 69.4732 11.3105 69.5769 11.1224 69.568L11.0843 70.0469C11.0336 70.6853 10.9864 71.3239 10.9705 71.9663C10.944 73.0344 10.956 74.0994 11.0326 75.1653L11.0435 75.3106C11.1037 76.0885 11.2383 76.9625 11.8217 77.5321C12.4259 78.1221 13.3551 78.3076 14.1695 78.3182C16.0663 78.343 17.8921 77.4445 19.5705 76.6562C21.2992 75.8444 22.9805 74.9433 24.6216 73.966C25.4574 73.4683 26.2841 72.9541 27.1003 72.4248C27.5008 72.165 27.8985 71.9009 28.2932 71.6324C28.5193 71.4787 28.7336 71.3101 28.9637 71.1737C28.8509 71.0684 28.8006 70.9029 28.8951 70.7584C28.2297 70.1794 27.9528 69.1461 27.9204 68.3101C27.8943 67.6353 27.9933 66.9623 28.0715 66.2938C28.111 65.9568 28.1597 65.6203 28.2103 65.2847C28.2303 65.1521 28.2455 65.0103 28.2689 64.8703C26.4723 65.8601 24.6254 66.7416 22.7296 67.5247C21.7579 67.9261 20.7737 68.2871 19.7759 68.6178L19.5736 68.6845C18.6282 68.9948 17.6602 69.2878 16.6828 69.4652C16.6306 69.4747 16.5881 69.3974 16.6439 69.3727C17.5964 68.9513 18.5819 68.5959 19.5486 68.2079L19.7075 68.143V68.143C19.6893 68.142 19.6703 68.1395 19.6506 68.1347C19.0836 67.9976 18.521 67.7861 17.9649 67.6081C17.4488 67.4429 16.869 67.3392 16.3866 67.0897C16.3495 67.0705 16.3702 67.0188 16.4064 67.0163C16.9486 66.9787 17.5372 67.1371 18.0688 67.2303L18.2685 67.2654C18.6031 67.3245 18.945 67.3881 19.278 67.471C19.29 67.3592 19.3523 67.2469 19.441 67.1811C20.4165 66.4568 20.3174 64.9939 20.4217 63.9152L20.4991 63.1143C20.6352 61.7127 20.7792 60.3112 20.9979 58.9201C21.0096 58.8458 21.1242 58.8671 21.1247 58.9373C21.136 60.6617 21.0061 62.3782 20.941 64.1L20.931 64.3824C20.895 65.4448 20.8668 66.548 20.1994 67.3655C20.2927 67.3108 20.4189 67.3108 20.4945 67.401C20.5874 67.5118 20.641 67.6363 20.6393 67.7584C21.2424 67.5049 21.8429 67.2448 22.4404 66.9794C24.3614 66.1262 26.2422 65.1713 28.0732 64.1381C28.2703 64.0269 28.4576 64.1143 28.5551 64.2609L28.5691 64.2589C28.5715 64.2586 28.5738 64.2583 28.5763 64.2583L28.5902 64.2577C28.5908 64.2577 28.5913 64.2577 28.5918 64.2577C28.8496 64.1157 29.2007 64.2169 29.4219 64.424C29.4284 64.4302 29.434 64.4369 29.4398 64.4435C29.7198 64.3175 29.9813 64.1474 30.2185 63.9317C30.7041 63.4905 31.1154 62.9449 31.474 62.3979C32.1343 61.3902 32.6951 60.2697 33.5871 59.4403C34.3118 58.7664 35.2103 58.3469 36.1529 58.0835C36.149 58.0559 36.1595 58.0264 36.1785 58.0069C36.227 57.9571 36.2615 57.9399 36.3241 57.9701C36.329 57.9726 36.332 57.9759 36.334 57.9795L36.426 57.822C36.4762 57.7365 36.5278 57.6503 36.5456 57.6277C36.6527 57.4926 36.7628 57.3586 36.8746 57.2273C37.0642 57.0051 37.2802 56.7858 37.5304 56.6317C38.0781 56.2944 38.6539 56.4853 39.217 56.6696C39.5572 56.7811 39.8963 56.8961 40.236 57.0092L40.271 57.0207C40.5243 57.1023 40.8206 57.1736 40.9339 57.4426C40.9787 57.5491 40.9856 57.6596 40.9647 57.7668C43.3701 57.1535 46.0418 57.4353 48.389 58.1552C48.4791 58.1828 48.5691 58.2571 48.5881 58.3547C48.857 59.7374 48.9768 61.1555 48.8551 62.5618C48.7501 63.7758 48.4818 64.9654 47.9762 66.0768L47.9475 66.1395C47.4724 67.1695 46.7193 68.4392 45.5692 68.762C44.8748 68.9569 44.1068 68.842 43.3985 68.8063C42.7102 68.7715 42.0066 68.7665 41.3248 68.658C40.7176 68.5614 40.1856 68.2885 39.8103 67.7935C39.4866 67.3665 39.3161 66.8503 39.1765 66.3369C39.1125 66.3573 39.049 66.379 38.9865 66.4036C38.7227 66.5068 38.4992 66.6735 38.2971 66.8697C37.8704 67.2841 37.5394 67.7873 37.0929 68.1826C36.6887 68.5406 36.2282 68.8189 35.7341 69.0329C34.7105 69.4763 33.6123 69.6536 32.5295 69.8886L32.454 69.9051C31.6388 70.0844 30.8068 70.3046 30.0873 70.7301C30.0732 70.8553 30.0163 70.9732 29.925 71.0504C30.0519 71.1698 30.1057 71.3591 29.9942 71.5366C29.6827 72.0322 29.1461 72.3142 28.6644 72.6311L28.6331 72.6519C28.1593 72.9668 27.6813 73.2755 27.1994 73.5779C26.2198 74.1928 25.2198 74.7739 24.2056 75.3294C22.5743 76.2228 20.9081 77.0655 19.2117 77.83C19.3135 78.3322 19.2763 78.8501 19.3528 79.3556L19.3646 79.4278C19.3973 79.6154 19.3531 79.7724 19.2242 79.8949L19.2106 79.9075L19.2108 79.9058L19.1987 79.9169L19.1947 79.9203L19.196 79.9193C19.1812 79.9329 19.1658 79.9456 19.1502 79.9565L19.1303 79.9693V79.9693C19.0061 80.045 18.8463 80.0441 18.7191 79.9773L18.7046 79.9693L18.6802 79.9553C18.5122 79.8584 18.3964 79.6184 18.4661 79.4278C18.6373 78.9592 18.7021 78.4591 18.8602 77.9874L18.7347 78.0436V78.0436L18.5694 78.1159C16.7809 78.8912 14.7943 79.5442 12.8456 79.0156C11.9846 78.782 11.1799 78.2878 10.749 77.4824C10.3251 76.6898 10.2652 75.7696 10.2427 74.888C10.2149 73.7999 10.2731 72.6952 10.4162 71.6165C10.5123 70.8923 10.6285 70.1545 10.8077 69.4379C10.7155 69.3564 10.6478 69.2394 10.6299 69.0945C10.5453 68.4101 10.6933 67.6985 10.7839 67.0176C10.8725 66.3528 10.9703 65.6893 11.0809 65.0278C11.3042 63.692 11.5637 62.359 11.8658 61.0388C12.4035 58.6892 13.1135 56.3814 13.9683 54.1288L14.0431 53.9326C14.833 51.8736 15.7475 49.8585 17.021 48.0497C17.6302 47.1843 18.2742 46.3997 19.135 45.7761C19.9414 45.1918 20.851 44.7711 21.7897 44.4496C22.7294 44.1278 23.6953 43.9122 24.6783 43.778C25.6765 43.6418 26.7302 43.5583 27.6615 43.1478C27.5437 42.9361 27.6448 42.6502 27.843 42.5189C28.5102 42.077 29.1272 41.502 29.7252 40.9708ZM51.0833 60.1883C51.1112 60.1457 51.1776 60.1726 51.1653 60.2229C50.8408 61.5558 50.5362 62.8913 50.3373 64.2496C49.9782 66.7011 50.0443 69.1846 50.0736 71.6543L50.0751 71.782C50.0902 73.1122 50.1112 74.4426 50.155 75.7723C50.1772 76.4444 50.221 77.123 50.1972 77.7954C50.1842 78.1601 50.0872 78.5051 50.0529 78.8655C50.0227 79.1806 50.0496 79.5006 50.0646 79.8162C50.0746 80.026 49.7658 80.017 49.7448 79.8162L49.7179 79.5564C49.683 79.2276 49.6399 78.9008 49.5324 78.5861C49.4031 78.2076 49.3411 77.8359 49.2963 77.4385C49.2276 76.8295 49.1971 76.2144 49.1706 75.6012L49.1524 75.177C49.0418 72.6142 49.0457 70.0394 49.2248 67.4792L49.2379 67.2964C49.4154 64.8764 49.7232 62.2617 51.0833 60.1883ZM44.1662 44.9361C44.0815 44.9012 44.1112 44.7727 44.205 44.7951L44.3757 44.8359C45.6265 45.1363 46.8545 45.4617 48.0219 46.0206C49.19 46.5798 50.179 47.4146 50.9649 48.4412C52.4925 50.4367 53.1273 52.8618 53.6284 55.2847C54.1854 57.9769 54.6924 60.679 55.2542 63.3704L55.3585 63.8717C55.8783 66.3785 56.3691 68.8866 56.7307 71.423L56.7567 71.607C57.1214 74.2152 57.3407 76.9138 56.9428 79.5289C56.8641 80.0462 56.0054 79.9174 56.039 79.4063C56.1359 77.9285 56.2054 76.4586 56.1383 74.9776C56.0711 73.4963 55.9325 72.0215 55.7259 70.5531C55.5521 69.3174 55.293 68.0971 55.0636 66.8713L55.0277 66.6777C54.8357 65.635 54.6377 64.5934 54.4402 63.5517L54.145 61.9921C53.7026 59.6568 53.2515 57.3195 52.7418 54.9989L52.7115 54.8623C52.2127 52.6297 51.4774 50.2911 49.9812 48.5181C48.4629 46.7189 46.2893 45.8128 44.1662 44.9361ZM38.6492 68.6171C38.6857 68.5356 38.8135 68.5445 38.8527 68.6171C39.0066 68.9018 39.0237 69.265 39.0528 69.5863L39.0558 69.6194C39.0928 70.0115 39.1256 70.4049 39.1456 70.7982C39.1836 71.5447 39.2018 72.2902 39.1995 73.0377C39.1971 73.8037 39.1817 74.5688 39.1405 75.3337L39.1294 75.5386C39.0918 76.2033 39.0287 76.9447 38.7137 77.5258C38.5992 77.7371 38.2877 77.675 38.2214 77.4613C38.0041 76.7618 38.1157 75.9324 38.1714 75.216L38.2147 74.657C38.2575 74.0979 38.2984 73.5386 38.3308 72.9788C38.3752 72.213 38.4119 71.4465 38.4471 70.6803C38.4586 70.4315 38.471 70.1826 38.484 69.9337L38.5042 69.5605C38.5213 69.2483 38.5199 68.9058 38.6492 68.6171ZM14.2178 69.6085L14.314 69.5154C14.6093 69.2257 14.9825 68.7795 15.419 68.8071C15.593 68.8182 15.704 68.9631 15.6679 69.1348C15.5908 69.5018 15.2173 69.6923 14.9485 69.9164C14.654 70.1618 14.3764 70.4241 14.0994 70.6889C13.8536 70.9237 13.6173 71.1652 13.3866 71.4143L13.3003 71.508C13.2176 71.5985 12.6288 72.1325 12.6925 72.271L12.6959 72.2772C12.7136 72.3037 12.6841 72.3402 12.6547 72.3309C12.4005 72.2504 12.4163 72.0319 12.5125 71.8105C12.6972 71.3851 13.0207 70.9916 13.3031 70.6284C13.5848 70.266 13.8898 69.9285 14.2178 69.6085V69.6085ZM39.5706 58.941C39.374 58.4751 38.6496 58.4849 38.2384 58.5127C37.2028 58.5829 36.0824 58.8456 35.161 59.3308C34.2057 59.8339 33.5622 60.64 32.9865 61.5314L32.9595 61.5732C32.3984 62.4478 31.8579 63.4831 30.9792 64.0844C30.5316 64.3908 30.009 64.6705 29.4659 64.7917C29.4286 64.8574 29.3682 64.9094 29.289 64.9283L29.2522 64.9368C29.0976 64.971 28.8573 65.0089 28.6497 64.9862C28.6511 65.088 28.65 65.189 28.6526 65.2854C28.6599 65.5618 28.663 65.8394 28.663 66.1159C28.6632 66.6953 28.6321 67.2759 28.6562 67.8553C28.6776 68.3677 28.7498 68.9032 28.9952 69.3612C29.1752 69.6973 29.4128 69.9197 29.6996 70.132C30.4051 69.701 31.2028 69.4382 32.0125 69.2407C32.9916 69.0018 33.9942 68.8423 34.9511 68.5184C35.4117 68.3624 35.8545 68.1583 36.2556 67.8811C36.6814 67.5867 37.0066 67.1885 37.3412 66.7989L37.3935 66.7384C37.735 66.3457 38.1076 65.97 38.5903 65.7572C39.0059 65.5738 39.5536 65.5411 39.917 65.2574C40.107 65.1089 40.123 64.8934 40.1429 64.6728C39.9102 64.7062 39.6638 64.6527 39.4319 64.6255L39.3117 64.6113C39.0924 64.5852 38.8781 64.5565 38.6621 64.5005C38.622 64.4902 38.622 64.4295 38.6621 64.4192C38.9173 64.3531 39.1702 64.3249 39.4319 64.2942L39.4933 64.2865C39.73 64.2554 39.9788 64.2084 40.211 64.2607C40.2527 64.1018 40.3128 63.95 40.3972 63.7981C40.5157 63.5846 40.7399 63.3426 40.7701 63.0932C40.7792 63.0188 40.7619 62.931 40.7269 62.8651L40.7148 62.8427C40.7001 62.8162 40.6826 62.7895 40.6571 62.773C40.6543 62.7763 40.6483 62.7801 40.6353 62.7842C40.4567 62.8406 40.3008 62.7529 40.2181 62.6177C39.8669 62.6614 39.4836 62.6467 39.1543 62.6613L38.8213 62.6775C38.4654 62.6938 38.0935 62.701 37.7591 62.6289C37.7124 62.6189 37.6983 62.541 37.745 62.5209C38.1561 62.3447 38.6547 62.2885 39.0948 62.2208C39.3406 62.1829 39.5882 62.1541 39.8347 62.1208C39.9988 62.0986 40.173 62.0619 40.3431 62.0531C40.7694 61.521 40.5397 60.6815 39.9463 60.4524C39.7302 60.5476 39.5358 60.4922 39.2996 60.4719C39.0639 60.4516 38.8276 60.4378 38.5909 60.4389C38.1167 60.441 37.6141 60.566 37.1444 60.5122C37.068 60.5034 36.997 60.4015 37.073 60.3393C37.4325 60.0452 37.9477 59.9493 38.4041 59.8866L38.4987 59.8739C38.6517 59.8538 38.8377 59.8244 39.0307 59.807C39.0743 59.7216 39.1526 59.6571 39.2703 59.6411C39.3052 59.6363 39.3404 59.6335 39.3754 59.6305L39.3749 59.627V59.627C39.6617 59.6132 39.6493 59.1274 39.5706 58.941ZM19.9327 68.0285C19.9276 68.0364 19.9221 68.0438 19.9162 68.051L19.9071 68.0616L19.9542 68.0424L19.9327 68.0285V68.0285ZM44.5762 57.8999C43.3688 57.7698 42.1597 57.7973 40.9488 57.8322C40.8519 58.1498 40.5148 58.4204 40.1881 58.4306C40.444 58.821 40.4704 59.3494 40.291 59.7634C40.6719 59.9154 41 60.1885 41.1992 60.5774C41.4755 61.1165 41.4393 61.7164 41.1663 62.2146C41.3993 62.4261 41.5368 62.7695 41.5231 63.0932C41.5077 63.4542 41.2931 63.7626 41.1148 64.0614C40.9221 64.3847 40.9156 64.6692 40.8564 65.0312C40.7698 65.561 40.4134 65.8823 39.9548 66.083L39.9792 66.1792C40.0974 66.6405 40.2445 67.1274 40.5824 67.4648C41.0171 67.8988 41.6915 67.8948 42.2658 67.9223L42.2935 67.9236C42.8194 67.95 43.3451 67.9809 43.8708 68.0107L44.2651 68.0328C44.8704 68.0662 45.4517 68.0702 45.9458 67.669C46.7525 67.0142 47.3056 65.9304 47.6556 64.971C48.3903 62.9572 48.3991 60.7472 48.0619 58.6499C46.9309 58.2844 45.7573 58.0271 44.5762 57.8999ZM34.5355 61.2409L34.5443 61.2415C34.7929 61.27 34.9637 61.4718 35.0245 61.7112C35.1129 62.0592 35.0696 62.3737 35.2821 62.6879C35.5008 63.0108 35.6352 63.2694 35.667 63.6685C35.6801 63.8327 35.6741 63.9964 35.7105 64.1572L35.737 64.2698C35.765 64.3898 35.788 64.5055 35.774 64.6344C35.7613 64.7519 35.7042 64.8435 35.5866 64.8812C35.2033 65.0041 34.9073 64.721 34.8083 64.3629C34.7228 64.0536 34.837 63.685 34.7163 63.3945C34.6495 63.2335 34.5262 63.0988 34.4565 62.9367C34.3875 62.7761 34.3528 62.6082 34.3417 62.4336C34.3207 62.1033 34.6121 61.7064 34.4495 61.4071C34.4149 61.3433 34.4541 61.239 34.5355 61.2409ZM29.4443 57.8323C29.7038 57.7794 29.9983 57.6582 30.2542 57.7589C30.3858 57.8108 30.4508 57.9716 30.3397 58.0834C30.1467 58.2774 29.8662 58.2882 29.6062 58.3339L29.5833 58.3381C29.276 58.3951 28.968 58.4491 28.6597 58.5004C28.0796 58.5967 27.4981 58.6819 26.9146 58.7542C26.3153 58.8286 25.7143 58.8948 25.1125 58.9446L24.8795 58.9638C24.3712 59.0045 23.8422 59.0353 23.3434 58.9572C23.2709 58.9459 23.2826 58.8401 23.3434 58.8215C23.8898 58.6557 24.4893 58.6112 25.0542 58.5411C25.6548 58.4664 26.2545 58.3874 26.8525 58.2938C27.4496 58.2003 28.0459 58.1 28.64 57.9891C28.9085 57.939 29.1767 57.8868 29.4443 57.8323ZM38.8095 57.2999C38.5818 57.219 38.3312 57.0993 38.0844 57.1393C37.6588 57.2085 37.28 57.6242 36.9431 57.898L37.1123 57.865C37.9778 57.6982 39.124 57.5186 39.8505 58.0703C39.8524 58.0671 39.8538 58.0639 39.8559 58.0607C39.9146 57.9714 39.9825 57.9017 40.0567 57.8253C40.0638 57.8186 40.0706 57.8117 40.0774 57.8047L40.1174 57.762L40.0259 57.7302C39.8298 57.6607 39.5976 57.571 39.5609 57.5579L39.5584 57.557C39.3084 57.4722 39.0582 57.3883 38.8095 57.2999ZM31.6982 39.1115C31.6625 38.6522 32.3755 38.656 32.4108 39.1115C32.4879 40.1059 32.2647 41.0909 31.7842 41.9627C31.7807 41.969 31.7768 41.9747 31.7731 41.9807C32.0736 42.1374 32.3775 42.2878 32.6882 42.4223C33.0856 42.5943 33.4905 42.7509 33.9026 42.8838C34.2754 43.004 34.7347 43.0515 35.0481 43.3018C35.709 43.8294 35.4607 44.9244 35.3336 45.6342L35.3137 45.7462C35.2504 46.1114 35.2047 46.4862 35.3582 46.8367C35.5223 47.2111 35.8539 47.4889 36.1498 47.7568L36.2096 47.8111C36.4717 48.0505 36.7712 48.3414 36.9635 48.666C37.139 48.3022 37.3782 48.0049 37.6312 47.6702C37.8117 47.4313 37.6832 47.3526 37.5536 47.1192C37.4288 46.8947 37.3678 46.6553 37.4069 46.3991C37.4789 45.9259 37.856 45.5842 38.2315 45.3274C38.6749 45.0242 39.1697 44.7997 39.6281 44.5177C40.5699 43.9383 41.4871 43.2759 42.3135 42.5402C42.3363 42.5198 42.3758 42.5465 42.3575 42.5743C41.7047 43.5697 40.9393 44.4299 39.9986 45.16C39.6172 45.456 39.2165 45.7016 38.8131 45.9598L38.6972 46.0344C38.5352 46.1396 38.3332 46.2801 38.26 46.4592C38.1863 46.6393 38.3434 46.7753 38.428 46.9245C38.6966 47.3983 38.567 47.8403 38.2486 48.2421L38.2338 48.2606C37.9173 48.6516 37.6775 49.0151 37.5629 49.5145C37.3164 50.5874 37.6597 51.7049 38.019 52.7121L38.0332 52.7518C38.2275 53.2946 38.4341 53.8336 38.603 54.3851L38.6494 54.5376C38.8024 55.0451 38.9277 55.5457 38.7561 56.0674C38.6977 56.2449 38.4563 56.2868 38.356 56.1198C38.0023 55.5308 37.9142 54.8221 37.6924 54.1746C37.4764 53.5435 37.2282 52.9238 37.0195 52.2901C36.7507 51.4742 36.5709 50.596 36.6685 49.7402C36.6656 49.7352 36.6625 49.7305 36.6601 49.7252L36.5916 49.5752C36.4051 49.1689 36.2249 48.8141 35.8856 48.4903C35.5317 48.1525 35.1476 47.8534 34.8691 47.4445C34.2643 46.5562 34.6384 45.5681 34.7114 44.5969L34.7198 44.4778C34.733 44.2761 34.7403 44.0021 34.6089 43.8625C34.4611 43.7054 34.1145 43.6653 33.9184 43.5958C33.4117 43.416 32.9123 43.2065 32.4366 42.9549C31.9839 42.7154 31.5453 42.4509 31.1369 42.141L30.9299 41.9849C30.6034 41.7378 30.2647 41.4681 30.0459 41.1318C30.0206 41.0931 30.0635 41.0306 30.1093 41.0492C30.4746 41.1978 30.8085 41.4343 31.1503 41.64C31.1556 41.6274 31.1618 41.6148 31.1688 41.6021C31.5918 40.8346 31.7657 39.9844 31.6982 39.1115ZM43.3697 44.3695C43.5153 43.9693 44.1788 44.0002 44.1523 44.4757C44.132 44.8411 43.9773 45.1708 43.8358 45.5025L43.8207 45.5381C43.6747 45.8837 43.506 46.2082 43.3042 46.5249C42.9185 47.1305 42.4667 47.6924 41.9842 48.2228C41.5467 48.7036 40.9726 48.9976 40.311 48.9488C40.0322 48.9282 39.7508 48.8571 39.5065 48.7175C39.2164 48.5516 38.9013 48.0535 38.5311 48.1742C38.4953 48.1858 38.4619 48.1332 38.4929 48.1083C38.9202 47.7633 39.4052 48.2983 39.8144 48.4272C40.4309 48.6213 41.0635 48.4067 41.4603 47.907C41.8746 47.3853 42.2559 46.8012 42.6041 46.2332C42.7809 45.9447 42.9422 45.6454 43.0816 45.3369C43.2222 45.0255 43.2542 44.687 43.3697 44.3695ZM42.376 41.9064C42.358 41.8512 42.4265 41.7986 42.4749 41.8302C42.7557 42.0134 42.999 42.2556 43.258 42.4679C43.5454 42.7033 43.8349 42.934 44.1289 43.1612C44.5574 43.4924 44.0604 44.1021 43.6832 43.7403C43.1669 43.2454 42.6016 42.5982 42.376 41.9064ZM40.8343 39.9692C40.9484 39.5282 41.6231 39.7101 41.5247 40.146L41.5215 40.1592C41.3353 40.8792 41.6005 41.6122 42.1667 42.0789L42.1876 42.0959C42.5458 42.3833 42.0383 42.8857 41.6836 42.6011C40.9093 41.9798 40.5872 40.9245 40.8343 39.9692Z" fill="black"/>
<path fill-rule="evenodd" clip-rule="evenodd" d="M46.643 25.9296C46.4213 24.1519 45.7248 22.2645 44.9923 20.6073C43.3452 17.1034 39.5745 16.6209 36.1941 15.8985C32.8584 15.4106 29.3261 14.97 26.0407 15.9435C24.1937 16.3981 23.4723 18.6082 23.7638 20.3522C23.9301 21.439 24.4225 22.4675 24.8424 23.4747C25.6769 25.5431 26.2064 27.7576 26.2072 29.997C26.15 31.4605 25.9444 33.1309 27.6183 33.7508C29.2112 34.5466 29.3458 36.7039 31.3403 37.928C32.1468 39.5693 34.3438 39.7137 35.925 40.0944C36.9243 40.2866 37.935 40.4281 38.9485 40.5194C41.8829 40.8972 44.2304 40.0429 45.7665 37.4166C46.7944 35.8183 47.5599 33.9728 47.3708 32.0357C47.1824 29.9958 46.8687 27.9666 46.643 25.9296Z" fill="#D08B5B"/>
<path fill-rule="evenodd" clip-rule="evenodd" d="M36.2194 11.6401C36.3869 11.4493 36.645 11.5148 36.8016 11.6656C36.9035 11.6958 37.0023 11.7406 37.0956 11.8001C37.3065 11.7729 37.5276 11.7729 37.7344 11.7805C37.7845 11.7522 37.8383 11.7271 37.8968 11.7055C38.315 11.5519 38.6853 11.6299 38.9907 11.8355C39.1378 11.6957 39.3234 11.608 39.5606 11.6212C39.7724 11.6331 39.9233 11.7332 40.0526 11.8651C40.1816 11.6782 40.39 11.5449 40.6497 11.5264C41.0127 11.5005 41.3617 11.6467 41.6509 11.8732C41.8194 11.679 42.0492 11.5673 42.3052 11.5662C42.4736 11.5355 42.6514 11.5476 42.812 11.5964C43.0452 11.6671 43.25 11.7997 43.4131 11.9718C43.671 11.7235 43.9868 11.5449 44.351 11.571C44.8223 11.6052 45.2129 11.9533 45.3945 12.3818C45.7135 12.5102 46.008 12.6933 46.2541 12.9544C46.2672 12.9681 46.2798 12.9825 46.2929 12.997C46.4255 13.0461 46.5503 13.1158 46.6603 13.2075C47.0085 13.4987 47.0861 13.92 46.9709 14.3328C46.987 14.3989 47.0007 14.4661 47.0133 14.5332C47.3394 14.583 47.6357 14.7721 47.8041 15.08C48.0347 15.5025 47.9893 16.0594 47.7396 16.4627C47.6323 16.6362 47.496 16.7824 47.343 16.9102C47.516 17.3051 47.433 17.7763 47.154 18.0957C47.086 18.2059 47.0026 18.3052 46.9087 18.3952C47.0123 18.8035 46.828 19.2247 46.46 19.4428L46.4286 19.522C46.4233 19.5351 46.4179 19.5482 46.4124 19.5612C46.4083 19.578 46.4033 19.5943 46.3983 19.6106C46.3895 19.7555 46.3421 19.8977 46.2478 20.0316C46.0548 20.3061 45.8156 20.4852 45.6888 20.8056L45.6761 20.8393C45.6216 20.9909 45.4455 21.0979 45.2954 21.0511C46.1285 22.77 46.5653 24.6825 46.8651 26.5568C47.0147 27.4919 47.13 28.4302 47.2236 29.3721L47.3154 30.3101C47.3961 31.1438 47.468 31.9803 47.4684 32.8168C47.4696 34.7091 46.9308 36.5292 45.7744 38.035C44.6807 39.4585 43.133 40.4901 41.3846 40.8964C39.5795 41.3153 37.462 41.1502 35.8432 40.1912C35.366 39.9092 35.7841 39.231 36.2697 39.4579C37.189 39.8876 38.1232 40.2069 39.1423 40.2783C40.1356 40.3484 41.1314 40.2236 42.0734 39.8972C43.6318 39.3565 44.9579 38.224 45.8103 36.8137C46.2302 36.1187 46.5342 35.3644 46.6961 34.5674C46.8976 33.574 46.8672 32.5472 46.7932 31.5411L46.7881 31.4726C46.6417 29.5341 46.4488 27.5837 46.137 25.6645C45.8614 23.9674 45.4376 22.3047 44.8874 20.6788C44.6719 20.4881 44.4308 20.3304 44.1728 20.2106C42.2836 20.1314 40.391 20.1545 38.5043 20.2855C36.8952 20.3979 35.294 20.5881 33.7048 20.8652L33.5345 20.8953C33.1827 20.9582 32.7921 20.9942 32.4606 21.1365C32.1762 21.259 32.0609 21.4942 31.9893 21.7834C31.8089 22.515 31.7814 23.3156 31.7509 24.0658C31.7211 24.7991 31.7886 25.5385 31.73 26.2694C31.6804 26.8809 31.5245 27.5069 31.0736 27.9492C30.8376 28.1808 30.5473 28.3074 30.2749 28.4833C30.0987 28.5968 30.024 28.7137 30.0467 28.9238C30.0957 29.3835 30.4643 29.9626 30.0503 30.3563C29.9775 30.4253 29.8514 30.4343 29.7797 30.3563C29.6089 30.1697 29.373 30.0274 29.1705 29.8768C29.0856 29.8144 29.1561 29.6932 29.2523 29.7363C29.3789 29.7934 29.508 29.8606 29.64 29.9194C29.3485 29.6782 28.9339 29.5599 28.5887 29.4897C28.4148 29.4549 28.2321 29.4447 28.0511 29.4609C27.9173 29.5251 27.7805 29.5846 27.6437 29.6427C27.4699 29.716 27.2943 29.7826 27.1174 29.8456C26.504 30.3479 26.2113 31.1647 26.3391 31.9635C26.409 32.4045 26.6115 32.8841 26.9932 33.1415C27.4454 33.4464 28.0511 33.3155 28.5397 33.5418C28.9972 33.7536 29.2756 34.1816 29.4841 34.6245L29.571 34.8089C29.7645 35.2171 29.9634 35.6145 30.2277 35.9861C30.5336 36.4164 30.9081 36.8029 31.3167 37.1348C31.5149 37.2954 31.7261 37.4399 31.9445 37.5715L32.0042 37.6071C32.2252 37.7373 32.3835 37.8615 32.3984 38.137C32.4032 38.233 32.3429 38.3206 32.2652 38.3704C31.9307 38.5835 31.598 38.317 31.3197 38.131C31.0192 37.9305 30.7319 37.7049 30.4661 37.4589C29.9607 36.992 29.5235 36.4375 29.1872 35.8355C28.9309 35.377 28.7852 34.7319 28.3802 34.3766C28.1329 34.1599 27.7835 34.1582 27.4747 34.1185C27.1873 34.0813 26.9156 34.0213 26.6599 33.8791C25.6199 33.2988 25.3261 31.8939 25.5728 30.8082C25.6146 30.6251 25.6731 30.4469 25.7454 30.2753C25.3583 30.3401 24.9235 29.938 25.0806 29.5323C25.0925 29.5017 25.1062 29.4729 25.1194 29.4435C24.8643 29.2748 24.663 29.0192 24.5675 28.6849C24.5185 28.5121 24.5113 28.3374 24.537 28.1688C24.4133 28.0854 24.3112 27.9708 24.2455 27.8297C24.04 27.7343 23.8578 27.5915 23.7491 27.3875C23.5986 27.106 23.6177 26.8467 23.7324 26.6133C23.7163 26.5839 23.7007 26.5539 23.6858 26.5232C23.2647 26.255 22.9708 25.7929 23.0042 25.2804C23.015 25.1105 23.0568 24.9575 23.1213 24.8195C23.1159 24.8021 23.1106 24.7841 23.1058 24.7667C22.7534 24.5866 22.4619 24.2908 22.3579 23.8959C22.254 23.4986 22.3765 23.1025 22.6214 22.7976C22.263 22.5342 22.0473 22.1664 22.1781 21.61C22.2313 21.3838 22.3382 21.1779 22.4828 21.0044C22.4822 20.9991 22.481 20.9937 22.4798 20.9882L22.4463 20.9621C22.0038 20.6113 21.7495 20.1643 22.021 19.6145C22.1429 19.3673 22.3167 19.195 22.521 19.0816L22.5312 19.0492V19.0492C22.3848 18.7341 22.3352 18.3843 22.4362 18.0164C22.5186 17.7134 22.7139 17.4721 22.9636 17.3119C22.9469 17.1762 22.9493 17.0316 22.9762 16.8749C23.021 16.6103 23.1518 16.3793 23.3429 16.2155C23.3501 16.1806 23.3591 16.1464 23.3692 16.1122C23.4337 15.9028 23.5544 15.6753 23.6942 15.5066C23.8094 15.3668 23.9385 15.3158 24.0962 15.3104C24.0866 15.1814 24.0932 15.0505 24.1195 14.9179C24.2001 14.5087 24.4593 14.1239 24.8434 13.9493C25.0011 13.8779 25.1672 13.8569 25.3273 13.8743C25.4634 13.5862 25.7293 13.3774 26.056 13.3324C26.1832 13.3144 26.3015 13.3156 26.4102 13.3318C26.4717 13.303 26.5356 13.2772 26.6026 13.2538C26.6468 13.2382 26.6916 13.2237 26.7364 13.2094C26.8875 13.021 27.0864 12.8703 27.3187 12.7797C27.5869 12.6747 27.8599 12.6854 28.1018 12.7737L28.1789 12.7574V12.7574C28.2996 12.5474 28.4919 12.3848 28.7876 12.311C29.1233 12.2275 29.4679 12.344 29.732 12.5559C29.7331 12.5559 29.7343 12.5559 29.7361 12.5552C29.8741 12.2449 30.1101 12.0289 30.5061 12.0439C30.7528 12.0535 30.9756 12.1766 31.1476 12.3518C31.2432 12.3398 31.3388 12.329 31.4349 12.3182C31.5365 12.1987 31.6494 12.0872 31.7742 11.9869C31.9785 11.8224 32.2443 11.8357 32.3948 12.0673C32.4277 12.1177 32.4582 12.1687 32.4886 12.2197L32.6266 12.2101V12.2101C32.7891 11.9899 33.0107 11.841 33.3141 11.8291C33.5925 11.8176 33.7908 11.9545 33.9419 12.1459C34.065 12.1429 34.1886 12.1406 34.3123 12.1387C34.4562 11.9713 34.6259 11.8236 34.8194 11.7012C34.9675 11.6076 35.1862 11.6395 35.3062 11.7643C35.3873 11.8492 35.4628 11.9377 35.533 12.0294C35.714 11.8256 35.9583 11.6914 36.2194 11.6401ZM27.4281 30.6972C27.707 30.5375 28.0821 30.7104 28.3521 30.846C28.6813 31.0111 29.008 31.2601 29.2093 31.5722C29.4835 31.9971 28.8389 32.3403 28.5504 31.9593C28.373 31.7246 28.2315 31.4882 28.0164 31.2829C27.8199 31.0945 27.535 30.9684 27.4221 30.72C27.4179 30.7116 27.4191 30.702 27.4281 30.6972ZM27.624 20.3839L27.6292 20.3689C27.7086 20.1509 27.3624 20.0569 27.2837 20.2731C27.1645 20.6009 27.3019 20.9572 27.6241 21.0987C27.7134 21.1379 27.8154 21.1243 27.8692 21.0341C27.9145 20.9582 27.8935 20.8266 27.805 20.7878C27.6237 20.7081 27.563 20.5676 27.624 20.3839V20.3839ZM24.6415 19.7742C24.8147 19.6206 24.5605 19.3667 24.388 19.5197C24.2271 19.6624 24.1077 19.8562 24.1387 20.0792C24.1703 20.3064 24.3409 20.4668 24.5276 20.5801C24.7254 20.7004 24.9057 20.3891 24.7084 20.2692L24.6863 20.2556C24.6034 20.2039 24.5065 20.1329 24.4925 20.0312C24.4776 19.9232 24.5686 19.8389 24.6415 19.7742ZM25.6251 17.0633L25.6374 17.0543C25.8235 16.9208 25.6447 16.6084 25.4565 16.7433C25.2838 16.8671 25.1454 17.028 25.1308 17.2498C25.1166 17.4654 25.2258 17.6522 25.3686 17.8039C25.5274 17.9726 25.7806 17.7176 25.622 17.5493C25.4676 17.3852 25.4374 17.2062 25.6251 17.0633V17.0633Z" fill="black"/>
<path fill-rule="evenodd" clip-rule="evenodd" d="M41.7783 35.2488C41.8701 35.0887 42.0816 34.9404 42.275 34.9632C43.1417 35.0651 43.1402 36.1186 42.8056 36.7336C42.5088 37.2789 41.8947 37.599 41.2801 37.5523C40.6344 37.5031 40.0842 37.1225 39.8421 36.5169C39.682 36.1163 39.608 35.3768 40.034 35.1076C40.0419 35.1026 40.0549 35.1039 40.0612 35.1111C40.2654 35.3493 40.2735 35.7069 40.4523 35.9721C40.6185 36.2188 40.8769 36.4225 41.1795 36.4539C41.4056 36.4774 41.6342 36.3957 41.7226 36.1923C41.7705 36.0822 41.765 36.0225 41.747 35.9467L41.7307 35.8809C41.6741 35.6504 41.6487 35.4748 41.7783 35.2488ZM42.01 30.6287C42.462 30.9042 43.1508 31.5465 42.6645 32.2294C42.0921 32.8315 41.268 32.1411 40.8619 31.8289C40.4853 31.5869 40.0622 32.2093 40.4116 32.4918C43.3461 34.67 44.537 30.7007 42.2386 30.3048C41.9856 30.2612 41.8916 30.5435 42.01 30.6287ZM37.2367 28.7398C37.5141 28.3225 38.1474 28.3839 38.3002 28.8792C38.383 29.1474 38.2687 29.3885 38.2746 29.6564C38.2796 29.8828 38.2648 30.1349 38.1956 30.3541C38.0378 30.8539 37.5895 31.2069 37.0591 31.1922C36.5304 31.1777 36.0647 30.8422 35.8433 30.3697C35.6211 29.8954 35.6682 29.4046 35.8304 28.9223C35.8382 28.8991 35.8685 28.8879 35.8867 28.9074C36.0785 29.1117 36.2188 29.3274 36.3641 29.5562L36.5129 29.7906C36.6267 29.9672 36.792 30.1928 37.0044 30.1786L37.0363 30.1754C37.0953 30.1704 37.0863 30.1821 37.1318 30.1014C37.1529 30.0641 37.149 29.9947 37.1592 29.9507L37.1627 29.9358V29.9358L37.1608 29.9278C37.1563 29.9065 37.1519 29.8663 37.1482 29.7965L37.1475 29.7811C37.1321 29.4548 37.0401 29.0355 37.2367 28.7398ZM44.2696 29.0176C44.2199 28.4839 44.9684 28.3654 45.2172 28.7603C45.347 28.9663 45.3848 29.225 45.4135 29.4701L45.4269 29.5864C45.4563 29.8382 45.468 30.1001 45.359 30.3349C45.1873 30.7048 44.814 30.9003 44.4112 30.8693C44.0266 30.8397 43.6758 30.6161 43.4908 30.2768C43.3259 29.9739 43.1619 29.3827 43.3622 29.0668C43.3743 29.0477 43.3985 29.0452 43.4151 29.06C43.6043 29.2285 43.6352 29.5357 43.7477 29.7552C43.8638 29.9816 44.0398 30.2022 44.3066 30.2366C44.5618 30.2694 44.6594 30.1297 44.5942 29.8857C44.5102 29.5708 44.3012 29.3565 44.2696 29.0176ZM37.4388 25.5665L37.5612 25.5195C37.9806 25.3607 38.5564 25.1771 38.8974 25.519C39.1077 25.7298 39.1477 26.0404 38.9976 26.2977C38.8157 26.6093 38.4894 26.617 38.1743 26.6629C37.8159 26.7151 37.4515 26.8144 37.1178 26.9559C36.7419 27.1153 36.3932 27.3141 36.0514 27.5361C35.7266 27.747 35.403 28.0918 35.0142 28.1568C34.9983 28.1594 34.9803 28.1526 34.9762 28.1351C34.8879 27.754 35.1332 27.379 35.3522 27.0817C35.6171 26.7218 35.9382 26.4263 36.297 26.1614C36.6432 25.9057 37.0389 25.7209 37.4388 25.5665ZM45.0569 26.9214L45.0943 26.9148C45.3486 26.8724 45.5791 26.8822 45.7708 27.0841C45.9171 27.2382 45.9734 27.4378 45.9037 27.6415C45.8394 27.8294 45.6955 28.0203 45.4866 28.0597C44.7815 28.1927 44.0005 28.1707 43.2919 28.07C42.9677 28.0239 42.6406 27.9675 42.3248 27.8786L42.1795 27.8363C41.9159 27.7608 41.6141 27.682 41.4226 27.4876C41.3538 27.4177 41.3934 27.3177 41.4758 27.2854C41.8099 27.1542 42.2679 27.224 42.6242 27.2137C43.0387 27.2018 43.4538 27.1707 43.8663 27.1278C44.2694 27.0858 44.6594 26.9945 45.0569 26.9214Z" fill="black"/>
<path fill-rule="evenodd" clip-rule="evenodd" d="M36.6772 36.7996C37.1618 35.6613 38.2195 34.8247 39.4374 34.5188C40.3317 34.2948 41.2702 34.302 42.1819 34.3909C42.6595 34.4371 43.1718 34.475 43.6219 34.6529C44.0063 34.8048 44.3196 35.092 44.5551 35.4291C44.8355 35.8285 45.0262 36.2857 45.1601 36.7543C45.1791 36.8209 45.197 36.888 45.2136 36.9555C45.1554 37.3091 45.0318 37.61 44.7052 37.8323C44.3864 38.0493 44.0061 38.1381 43.627 38.1697C43.5898 38.1518 43.5539 38.1334 43.5209 38.1145C42.9301 37.7754 42.5143 36.9741 41.7686 37.0826C41.1031 37.1794 40.6651 38.0189 40.2693 38.5112C38.999 38.6595 37.7296 38.2769 36.696 37.5486C36.6436 37.2993 36.6405 37.048 36.6772 36.7996M46.077 35.9361C45.9754 35.6502 45.8474 35.3733 45.6957 35.1124C45.1942 34.2498 44.4242 33.5624 43.5102 33.1695C41.3479 32.2413 38.5502 32.8956 36.8041 34.4179C36.2076 34.9383 35.6045 35.703 35.4221 36.5256C35.3676 36.5364 35.3162 36.5648 35.2739 36.6048C34.0123 35.8085 32.7131 35.0424 31.6965 33.9385C30.9582 33.1365 30.4447 32.1873 30.1303 31.1443C30.1046 31.0585 29.9665 31.071 29.9706 31.166C29.9718 31.1882 29.973 31.2104 29.9742 31.2326C29.9611 31.1918 29.8989 31.2128 29.8941 31.2524C29.725 32.5195 29.5133 33.8628 29.7082 35.1364C29.8248 35.8964 30.1691 36.4528 30.6294 37.0536C31.1226 37.6975 31.6809 38.2965 32.2518 38.8709C32.6141 39.2355 32.9925 39.656 33.4361 39.9234C33.952 40.234 34.5372 40.4702 35.0878 40.7098C35.6479 40.9543 36.2164 41.1802 36.7957 41.3761C37.9536 41.769 39.1504 42.0405 40.3681 42.1595C41.3431 42.2544 42.4574 42.3578 43.3918 41.99C44.108 41.7083 44.686 41.1989 45.1445 40.586C45.6437 39.9186 46.0383 39.1583 46.2564 38.3566C46.4831 37.5238 46.1248 36.0703 46.077 35.9361" fill="black"/>
</svg>
