<svg width="108" height="108" viewBox="0 0 108 108" fill="none" xmlns="http://www.w3.org/2000/svg">
<g filter="url(#filter0_d_32_111)">
<rect x="4" width="100" height="100" rx="15" fill="#0496FF"/>
<path d="M53.8333 90.25C50.5 87.6111 46.8889 85.5625 43 84.1042C39.1111 82.6458 35.0833 81.9167 30.9167 81.9167C28 81.9167 25.1354 82.2986 22.3229 83.0625C19.5104 83.8264 16.8194 84.9028 14.25 86.2917C12.7917 87.0556 11.3854 87.0208 10.0312 86.1875C8.67708 85.3542 8 84.1389 8 82.5417V32.3333C8 31.5694 8.19097 30.8403 8.57292 30.1458C8.95486 29.4514 9.52778 28.9306 10.2917 28.5833C13.4861 26.9167 16.8194 25.6667 20.2917 24.8333C23.7639 24 27.3056 23.5833 30.9167 23.5833C34.9444 23.5833 38.8854 24.1042 42.7396 25.1458C46.5938 26.1875 50.2917 27.75 53.8333 29.8333V80.25C57.375 78.0278 61.0903 76.3611 64.9792 75.25C68.8681 74.1389 72.7917 73.5833 76.75 73.5833C79.25 73.5833 81.6979 73.7917 84.0938 74.2083C86.4896 74.625 88.9028 75.25 91.3333 76.0833V26.0833C92.375 26.4306 93.3993 26.7951 94.4062 27.1771C95.4132 27.559 96.4028 28.0278 97.375 28.5833C98.1389 28.9306 98.7118 29.4514 99.0938 30.1458C99.4757 30.8403 99.6667 31.5694 99.6667 32.3333V82.5417C99.6667 84.1389 98.9896 85.3542 97.6354 86.1875C96.2812 87.0208 94.875 87.0556 93.4167 86.2917C90.8472 84.9028 88.1562 83.8264 85.3438 83.0625C82.5312 82.2986 79.6667 81.9167 76.75 81.9167C72.5833 81.9167 68.5556 82.6458 64.6667 84.1042C60.7778 85.5625 57.1667 87.6111 53.8333 90.25ZM62.1667 69.4167V29.8333L83 9V50.6667L62.1667 69.4167ZM45.5 76.1875V34.9375C43.2083 33.9653 40.8299 33.2188 38.3646 32.6979C35.8993 32.1771 33.4167 31.9167 30.9167 31.9167C28.3472 31.9167 25.8472 32.1597 23.4167 32.6458C20.9861 33.1319 18.625 33.8611 16.3333 34.8333V76.1875C18.7639 75.2847 21.1771 74.625 23.5729 74.2083C25.9688 73.7917 28.4167 73.5833 30.9167 73.5833C33.4167 73.5833 35.8646 73.7917 38.2604 74.2083C40.6562 74.625 43.0694 75.2847 45.5 76.1875Z" fill="white"/>
</g>
<defs>
<filter id="filter0_d_32_111" x="0" y="0" width="108" height="108" filterUnits="userSpaceOnUse" color-interpolation-filters="sRGB">
<feFlood flood-opacity="0" result="BackgroundImageFix"/>
<feColorMatrix in="SourceAlpha" type="matrix" values="0 0 0 0 0 0 0 0 0 0 0 0 0 0 0 0 0 0 127 0" result="hardAlpha"/>
<feOffset dy="4"/>
<feGaussianBlur stdDeviation="2"/>
<feComposite in2="hardAlpha" operator="out"/>
<feColorMatrix type="matrix" values="0 0 0 0 0 0 0 0 0 0 0 0 0 0 0 0 0 0 0.25 0"/>
<feBlend mode="normal" in2="BackgroundImageFix" result="effect1_dropShadow_32_111"/>
<feBlend mode="normal" in="SourceGraphic" in2="effect1_dropShadow_32_111" result="shape"/>
</filter>
</defs>
</svg>
