<svg width="108" height="157" viewBox="0 0 108 157" fill="none" xmlns="http://www.w3.org/2000/svg">
<g filter="url(#filter0_d_71_15)">
<path d="M20.6172 131.76V138H15.3052V119.248H17.4172C17.9292 119.248 18.6919 119.227 19.7052 119.184C20.7186 119.131 21.5559 119.104 22.2172 119.104C24.5212 119.104 26.2386 119.611 27.3692 120.624C28.5106 121.637 29.0813 123.189 29.0813 125.28C29.0813 126.517 28.8092 127.616 28.2652 128.576C27.7319 129.536 27.0226 130.299 26.1372 130.864C26.6172 130.981 27.0279 131.253 27.3692 131.68C27.7213 132.107 27.9932 132.613 28.1852 133.2C28.3772 133.776 28.5426 134.363 28.6812 134.96C28.8306 135.547 28.9959 136.128 29.1773 136.704C29.3692 137.28 29.5772 137.712 29.8012 138H23.8972C23.7799 137.851 23.6892 137.435 23.6253 136.752C23.5612 136.059 23.4706 135.232 23.3532 134.272C23.2466 133.301 23.0919 132.491 22.8892 131.84C22.8679 131.84 22.8412 131.84 22.8092 131.84C22.6066 131.84 22.3879 131.84 22.1533 131.84C21.9293 131.829 21.7319 131.819 21.5613 131.808C21.3906 131.797 21.2092 131.787 21.0172 131.776C20.8359 131.765 20.7026 131.76 20.6172 131.76ZM20.6172 128.784H21.1293C21.3959 128.784 21.6199 128.773 21.8012 128.752C21.9826 128.731 22.1799 128.693 22.3932 128.64C22.6172 128.576 22.7986 128.48 22.9372 128.352C23.0866 128.224 23.2253 128.059 23.3532 127.856C23.4813 127.653 23.5773 127.392 23.6412 127.072C23.7052 126.752 23.7372 126.379 23.7372 125.952V124.688C23.7372 123.76 23.4919 123.115 23.0012 122.752C22.5213 122.379 21.8279 122.192 20.9213 122.192H20.6172V128.784ZM42.166 138H30.822V119.248H41.926L41.606 123.024L36.118 122.864V126.48H40.438V130.224L36.118 129.904V134.16L42.166 134V138ZM52.8189 138L52.0989 135.008H47.5549L46.9469 138H42.2429L47.1229 120.544L46.7389 119.248H53.3469L58.6909 138H52.8189ZM49.6189 124.752L48.2109 131.744H51.3149L49.6189 124.752ZM65.642 135.376C66.4527 135.376 67.0713 134.875 67.498 133.872C67.9353 132.869 68.154 131.216 68.154 128.912V127.296C68.154 125.611 67.9513 124.309 67.546 123.392C67.1407 122.475 66.5647 122.016 65.818 122.016H64.618V135.376H65.642ZM66.138 138.112C65.754 138.112 65.1567 138.091 64.346 138.048C63.546 138.016 62.7193 138 61.866 138H59.322V119.248H61.866C62.5807 119.237 63.3593 119.211 64.202 119.168C65.0447 119.125 65.706 119.104 66.186 119.104C68.906 119.104 70.8527 119.867 72.026 121.392C73.21 122.917 73.802 125.141 73.802 128.064C73.802 129.056 73.7327 130 73.594 130.896C73.466 131.792 73.2207 132.693 72.858 133.6C72.4953 134.496 72.0367 135.269 71.482 135.92C70.9273 136.571 70.1913 137.099 69.274 137.504C68.3567 137.909 67.3113 138.112 66.138 138.112ZM75.3544 138V119.248H80.8104V138H75.3544ZM94.3379 138H82.9939V119.248H94.0979L93.7779 123.024L88.2899 122.864V126.48H92.6099V130.224L88.2899 129.904V134.16L94.3379 134V138Z" fill="white"/>
</g>
<g filter="url(#filter1_d_71_15)">
<rect x="4" width="100" height="100" rx="15" fill="white"/>
<path d="M53.8333 90.25C50.5 87.6111 46.8889 85.5625 43 84.1042C39.1111 82.6458 35.0833 81.9167 30.9167 81.9167C28 81.9167 25.1354 82.2986 22.3229 83.0625C19.5104 83.8264 16.8194 84.9028 14.25 86.2917C12.7917 87.0556 11.3854 87.0208 10.0312 86.1875C8.67708 85.3542 8 84.1389 8 82.5417V32.3333C8 31.5694 8.19097 30.8403 8.57292 30.1458C8.95486 29.4514 9.52778 28.9306 10.2917 28.5833C13.4861 26.9167 16.8194 25.6667 20.2917 24.8333C23.7639 24 27.3056 23.5833 30.9167 23.5833C34.9444 23.5833 38.8854 24.1042 42.7396 25.1458C46.5938 26.1875 50.2917 27.75 53.8333 29.8333V80.25C57.375 78.0278 61.0903 76.3611 64.9792 75.25C68.8681 74.1389 72.7917 73.5833 76.75 73.5833C79.25 73.5833 81.6979 73.7917 84.0938 74.2083C86.4896 74.625 88.9028 75.25 91.3333 76.0833V26.0833C92.375 26.4306 93.3993 26.7951 94.4062 27.1771C95.4132 27.559 96.4028 28.0278 97.375 28.5833C98.1389 28.9306 98.7118 29.4514 99.0938 30.1458C99.4757 30.8403 99.6667 31.5694 99.6667 32.3333V82.5417C99.6667 84.1389 98.9896 85.3542 97.6354 86.1875C96.2812 87.0208 94.875 87.0556 93.4167 86.2917C90.8472 84.9028 88.1562 83.8264 85.3438 83.0625C82.5312 82.2986 79.6667 81.9167 76.75 81.9167C72.5833 81.9167 68.5556 82.6458 64.6667 84.1042C60.7778 85.5625 57.1667 87.6111 53.8333 90.25ZM62.1667 69.4167V29.8333L83 9V50.6667L62.1667 69.4167ZM45.5 76.1875V34.9375C43.2083 33.9653 40.8299 33.2188 38.3646 32.6979C35.8993 32.1771 33.4167 31.9167 30.9167 31.9167C28.3472 31.9167 25.8472 32.1597 23.4167 32.6458C20.9861 33.1319 18.625 33.8611 16.3333 34.8333V76.1875C18.7639 75.2847 21.1771 74.625 23.5729 74.2083C25.9688 73.7917 28.4167 73.5833 30.9167 73.5833C33.4167 73.5833 35.8646 73.7917 38.2604 74.2083C40.6562 74.625 43.0694 75.2847 45.5 76.1875Z" fill="#0496FF"/>
</g>
<defs>
<filter id="filter0_d_71_15" x="11.3052" y="119.104" width="87.0327" height="27.008" filterUnits="userSpaceOnUse" color-interpolation-filters="sRGB">
<feFlood flood-opacity="0" result="BackgroundImageFix"/>
<feColorMatrix in="SourceAlpha" type="matrix" values="0 0 0 0 0 0 0 0 0 0 0 0 0 0 0 0 0 0 127 0" result="hardAlpha"/>
<feOffset dy="4"/>
<feGaussianBlur stdDeviation="2"/>
<feComposite in2="hardAlpha" operator="out"/>
<feColorMatrix type="matrix" values="0 0 0 0 0 0 0 0 0 0 0 0 0 0 0 0 0 0 0.25 0"/>
<feBlend mode="normal" in2="BackgroundImageFix" result="effect1_dropShadow_71_15"/>
<feBlend mode="normal" in="SourceGraphic" in2="effect1_dropShadow_71_15" result="shape"/>
</filter>
<filter id="filter1_d_71_15" x="0" y="0" width="108" height="108" filterUnits="userSpaceOnUse" color-interpolation-filters="sRGB">
<feFlood flood-opacity="0" result="BackgroundImageFix"/>
<feColorMatrix in="SourceAlpha" type="matrix" values="0 0 0 0 0 0 0 0 0 0 0 0 0 0 0 0 0 0 127 0" result="hardAlpha"/>
<feOffset dy="4"/>
<feGaussianBlur stdDeviation="2"/>
<feComposite in2="hardAlpha" operator="out"/>
<feColorMatrix type="matrix" values="0 0 0 0 0 0 0 0 0 0 0 0 0 0 0 0 0 0 0.25 0"/>
<feBlend mode="normal" in2="BackgroundImageFix" result="effect1_dropShadow_71_15"/>
<feBlend mode="normal" in="SourceGraphic" in2="effect1_dropShadow_71_15" result="shape"/>
</filter>
</defs>
</svg>
